<svg viewBox="0 0 144 48" fill="none" xmlns="http://www.w3.org/2000/svg">
    <path d="M10.552 22.1596L10.552 38.2465C10.552 39.2782 10.1811 39.7846 9.42073 39.7846C8.62331 39.7846 8.21533 39.2782 8.21533 38.2465L8.21533 10.8681C8.21533 9.83646 8.60476 9.33003 9.38364 9.33003C10.1625 9.33003 10.552 9.83646 10.552 10.8681L10.552 19.7025L18.452 19.7025L18.452 11.5996C18.452 5.50368 15.4107 2.87773 9.38364 2.87773C3.13406 2.87773 -1.76415e-09 6.23519 -3.66402e-09 12.9501L-1.02375e-08 36.1833C-1.21427e-08 42.917 3.13406 46.2744 9.38364 46.2744C15.4292 46.2932 18.452 43.4046 18.452 37.6088L18.452 22.1596L10.552 22.1596Z" fill="#F24139"></path>
    <path d="M30.9326 22.2093L28.5404 22.2093L28.5404 1.42222L20.5661 1.42222L20.5661 44.0874L28.5404 44.0874L28.5404 28.9992L30.9326 28.9992L30.9326 44.0874L38.9069 44.0874L38.9069 1.42222L30.9326 1.42222L30.9326 22.2093Z" fill="#F24139"></path>
    <path d="M41.3362 42.6651L49.3105 42.6651L49.3105 -1.40426e-08L41.3362 -1.17717e-08L41.3362 42.6651Z" fill="#F24139"></path>
    <path d="M68.5043 23.7726C69.6726 22.3847 70.2475 20.5465 70.2475 18.2769L70.2475 11.2245C70.2475 6.10389 67.4658 3.23411 61.958 3.23411L51.7584 3.23411L51.7584 45.8993L59.7326 45.8993L59.7326 30.2409L61.4017 30.2409L62.5329 45.8993L70.7853 45.8993L68.5043 23.7726ZM59.7326 10.024L60.4003 10.024C61.5315 10.024 62.0878 10.7555 62.0878 12.2186L62.0878 21.5941C62.0693 23.2822 61.5129 24.1263 60.4003 24.1263L59.7326 24.1263L59.7326 10.024Z" fill="#F24139"></path>
    <path d="M82.7838 31.688C85.2873 31.688 87.2901 30.8439 88.7737 29.1371C90.2388 27.449 90.9806 25.2544 90.9806 22.5347L90.9806 14.0567C90.9806 11.2995 90.2758 9.16122 88.8479 7.62318C87.42 6.10389 85.3986 5.33486 82.7838 5.33486L72.4173 5.33486L72.4173 48L80.3915 48L80.3915 31.688L82.7838 31.688ZM80.3915 24.9168L80.3915 12.1248L81.1518 12.1248C82.246 12.1248 82.7838 12.8375 82.7838 14.2443L82.7838 22.7598C82.7838 24.2041 82.246 24.9168 81.1518 24.9168L80.3915 24.9168Z" fill="#F24139"></path>
    <path d="M100.531 4.84431L92.5569 4.84431L92.5569 47.5095L106.41 47.5095L106.41 40.7196L100.531 40.7196L100.531 4.84431Z" fill="#F24139"></path>
    <path d="M115.589 27.2584L122.117 27.2584L122.117 20.8436L115.589 20.8436L115.589 10.024L122.488 10.024L122.488 3.23411L107.615 3.23411L107.615 45.8993L122.599 45.8993L122.599 39.1094L115.589 39.1094L115.589 27.2584Z" fill="#F24139"></path>
    <path d="M133.448 18.0519L133.133 13.9067L131.853 3.23411L123.156 3.23411L129.609 36.9899L129.609 45.8993L137.583 45.8993L137.583 36.9523L144 3.23411L135.488 3.23411L134.283 13.9067L133.93 18.0519L133.448 18.0519Z" fill="#F24139"></path>
</svg>