<?xml version="1.0" encoding="utf-8"?>
<!-- Generator: Adobe Illustrator 26.1.0, SVG Export Plug-In . SVG Version: 6.00 Build 0)  -->
<svg version="1.1" id="Layer_1" xmlns="http://www.w3.org/2000/svg" xmlns:xlink="http://www.w3.org/1999/xlink" x="0px" y="0px"
	 viewBox="0 0 134.4 28" style="enable-background:new 0 0 134.4 28;" xml:space="preserve">
<style type="text/css">
	.st0{fill:#2F201C;}
	.st1{fill:#EAA548;}
	.st2{fill:#FFFFFF;}
	.st3{fill:#DCDCDC;}
	.st4{fill:#E08532;}
	.st5{fill:#E08432;}
	.st6{fill:#B8572A;}
	.st7{fill:#F4CB71;}
	.st8{fill:#CF722E;}
	.st9{fill:#DF8432;}
	.st10{fill:#F3DF5A;}
	.st11{fill:#A22B2A;}
	.st12{fill:#FCFCFA;}
	.st13{fill:#FFFCFB;}
	.st14{fill:#C03433;}
	.st15{fill:#C43533;}
	.st16{fill:#D9D9D8;}
	.st17{fill:#D9D9D9;}
	.st18{fill:#F9F8F6;}
	.st19{fill:#C3C3C2;}
	.st20{fill:#FFFFFC;}
	.st21{fill:#CBCCCD;}
	.st22{fill:#CCCECE;}
	.st23{fill:#F9F8F8;}
	.st24{fill:#F7F7F7;}
	.st25{fill:#573E39;}
	.st26{fill:#E18981;}
	.st27{fill:#EAAFA7;}
</style>
<g id="Group_225" transform="translate(0 0)">
	<path id="Path_1" class="st0" d="M3.6,20.3c0-0.8,0.3-1.7,0.8-2.3c0.2-0.2,0.1-0.6-0.1-0.7c0,0,0,0-0.1,0c-1.7-0.8-2.9-2.4-3.2-4.2
		c-0.1-1.6,0-3,0.4-4.3c0.1-0.3,0.1-0.6,0-0.9C0.9,5.8,0.9,3.6,1.6,1.6c0.5-1.5,1.3-1.8,2.8-1.2C5.2,0.8,6,1.3,6.7,1.9
		C6.8,2.1,7.1,2.2,7.3,2c2.6-1.1,5.4-1.1,8,0c0.2,0.1,0.4,0,0.5-0.1c0.7-0.6,1.4-1.1,2.2-1.5c0.3-0.2,0.7-0.3,1.1-0.4
		c0.6-0.1,1.2,0.1,1.5,0.7c0.4,0.8,0.7,1.6,0.8,2.4c0.3,1.6,0.2,3.3-0.3,4.9c0,0.1,0,0.3,0,0.4c0.4,1.2,0.6,2.5,0.5,3.8
		c-0.2,2.1-1.4,3.9-3.3,4.8c-0.3,0.1-0.4,0.4-0.2,0.7c0,0,0,0.1,0.1,0.1c0.7,0.9,1,2,0.8,3.1c0,0.1-0.1,0.2,0.1,0.3
		c0.9,0.6,1.4,1.6,1.2,2.7c-0.1,0.7-0.3,1.4-0.6,2c-0.3,0.8-1.1,1.3-1.9,1.3h-0.7c-0.5,0-1,0.1-1.5,0.3c-0.7,0.3-1.4,0.4-2.2,0.1
		h-0.1c-0.5-0.5-1.1-0.4-1.7-0.4h-0.9c-0.4,0-0.8,0.1-1.1,0.3c-1,0.6-2,0.6-2.8,0c-0.2-0.1-0.4-0.2-0.6-0.2H4.9
		c-0.8,0-1.6-0.5-1.9-1.2c-0.3-0.6-0.5-1.2-0.5-1.8c0-0.2-0.1-0.4-0.3-0.5c-2.2-1.4-2.9-4.4-1.5-6.6l0,0l0.1-0.1
		C0.9,17,1,16.9,1.2,16.9s0.2,0.2,0.3,0.3c0,0.9,0.4,1.8,1.1,2.4C2.9,19.9,3.2,20.1,3.6,20.3"/>
	<path id="Path_2" class="st1" d="M1.6,12.6c-0.1-1.2,0-2.4,0.3-3.5c0.6-2.1,1.9-4,3.7-5.3C5.9,3.5,6,3.3,5.7,3.1
		c-0.3-0.5-0.6-0.9-1-1.3c0.2-0.2,0.3,0,0.4,0c0.5,0.3,1,0.6,1.4,1C6.7,3.1,7,3.1,7.3,3c1.9-0.8,4-1,6-0.6c0.7,0.1,1.3,0.4,2,0.6
		c0.1,0.1,0.4,0.1,0.5-0.1c0.4-0.4,0.9-0.7,1.4-1c0.2-0.1,0.3-0.3,0.6-0.1c-0.4,0.4-0.7,0.8-1,1.2s-0.3,0.5,0.1,0.8
		c2.4,1.8,3.8,4.5,4,7.5c0.1,0.4,0,0.8,0,1.3c-0.3,0.6-0.9,0.9-1.6,0.9c-0.9,0.1-1.9-0.2-2.6-0.9c-0.7-0.6-1.4-1.2-2-1.8
		c-0.4-0.4-0.8-0.8-1.3-1.1c-1.3-0.9-3-0.9-4.3,0c-0.6,0.5-1.2,1-1.8,1.6c-0.4,0.3-0.8,0.8-1.3,1.1c-0.7,0.6-1.7,1-2.7,0.9
		C2.7,13.4,2,13.1,1.6,12.6"/>
	<path id="Path_3" class="st2" d="M1.6,12.6c0.4,0.3,0.8,0.5,1.3,0.6C4,13.4,5.1,13.1,6,12.3c0.8-0.6,1.5-1.4,2.2-2.1
		c0.6-0.6,1.3-1,2-1.2c1.2-0.3,2.5,0,3.5,0.8c0.9,0.7,1.7,1.6,2.6,2.4c0.8,0.9,2.1,1.3,3.2,1c0.5-0.1,0.9-0.4,1.2-0.7
		c0,0.2-0.1,0.5-0.1,0.7c-0.2,0.4-0.5,0.8-0.8,1.2C19,15.2,18,15.8,17,16.2c-1.2,0.4-2.5,0.7-3.8,0.8c-2,0.2-4,0.1-6-0.3
		c-1.6-0.3-3.2-1-4.4-2.1c-0.4-0.4-0.8-0.9-1.1-1.4C1.7,13,1.7,12.8,1.6,12.6"/>
	<path id="Path_4" class="st3" d="M1.8,13.2c0.3,0.3,0.6,0.7,0.9,1c0.6,0.6,1.3,1.1,2,1.5c1.5,0.7,3.1,1.1,4.8,1.2
		c2.1,0.2,4.2,0.1,6.3-0.4c1.5-0.3,2.9-1.1,4.1-2.2c0.2-0.3,0.4-0.5,0.6-0.8c0-0.1,0.1-0.2,0.3-0.2c-0.3,1.3-1.2,2.5-2.4,3.2
		c-1.4,0.8-2.9,1.3-4.4,1.4c-2.4,0.3-4.8,0.2-7.1-0.4c-1.6-0.4-3-1.1-4-2.2C2.3,14.7,2,14,1.8,13.2"/>
	<path id="Path_5" class="st1" d="M13.1,26.4c-0.1-0.3-0.1-0.7,0-1v-2.2c0-0.1,0-0.1,0.1,0s0,0.2,0.1,0.3c0.9-0.8,1.7-1.6,2.5-2.5
		c0.5-0.5,0.8-1.2,0.9-1.9c0,0,0-0.1,0-0.2c0.2-0.1,0.3-0.1,0.5-0.2c0.2,0,0.2,0.2,0.3,0.3c0.1,0.6,0.2,1.2,0,1.8
		c-0.2,1-0.5,2.1-0.9,3c-0.2,0.6-0.6,1.2-0.9,1.8c-0.1,0.1-0.2,0.3-0.3,0.4c-0.1,0-0.1,0-0.2,0c-0.6-0.1-1.2,0-1.7,0.2
		C13.2,26.5,13.1,26.5,13.1,26.4"/>
	<path id="Path_6" class="st1" d="M9.4,24c0,0.8,0,1.6,0,2.5c-0.1,0-0.2,0-0.3,0c-0.5-0.2-1.1-0.3-1.6-0.2c-0.1,0.1-0.2,0-0.3,0
		c-0.1-0.2-0.1-0.4-0.3-0.6c-0.8-1.3-1.3-2.7-1.7-4.2C5,20.8,5,20.1,5.1,19.4c0-0.2,0.1-0.4,0.3-0.5c0.2,0,0.3,0.1,0.5,0.2
		C6,19.2,6,19.3,6,19.4C6.1,20,6.3,20.5,6.7,21c0.7,0.9,1.5,1.7,2.4,2.5C9.2,23.6,9.4,23.8,9.4,24"/>
	<path id="Path_7" class="st3" d="M10.1,25.3v-2c0-0.3-0.1-0.5-0.4-0.4c-0.1-0.1-0.2-0.2-0.2-0.4c-0.3-0.8-0.7-1.6-1.2-2.3
		C8.2,20,8,19.8,7.7,19.7c-0.1,0-0.2,0-0.2-0.2c0.7,0.1,1.4,0.3,2.1,0.3c0.3,0,0.2,0.1,0.1,0.3c-0.3,0.6-0.1,1.4,0.4,1.8
		c0.5,0.5,1.2,0.6,1.9,0.3c0.8-0.4,1.2-1.3,0.9-2.1c-0.1-0.3,0-0.3,0.3-0.3c0.5,0,1-0.1,1.6-0.2c0,0.1,0,0.2-0.1,0.3
		c-0.7,0.8-1.2,1.8-1.5,2.8c0,0.1,0,0.2-0.1,0.2c-0.4,0-0.5,0-0.5,0.4c0,0.6,0,1.3,0,1.9C11.8,25.9,10.8,25.9,10.1,25.3"/>
	<path id="Path_8" class="st2" d="M7.5,19.6c0.8,0.3,1.1,1,1.5,1.7c0.3,0.5,0.5,1,0.6,1.6c-0.3,0.1-0.2,0.4-0.2,0.6V24
		c-1-1-2-2-2.8-3.1c-0.5-0.5-0.7-1.1-0.7-1.8C6.4,19.2,6.9,19.4,7.5,19.6"/>
	<path id="Path_9" class="st2" d="M12.9,23c0.1-0.7,0.4-1.5,0.9-2.1c0.3-0.4,0.6-0.8,0.9-1.2c0.6-0.2,1.3-0.3,1.9-0.6
		c0.1,0.5,0,1-0.3,1.4c-0.6,0.9-1.3,1.7-2.1,2.5c-0.4,0.3-0.7,0.7-1,1c-0.1-0.2,0-0.4-0.1-0.6C13,23.2,13,23,12.9,23"/>
	<path id="Path_10" class="st4" d="M15.1,26.1c0.9-1.5,1.6-3.1,2-4.8c0.2-0.8,0.2-1.7-0.1-2.5c0,0,0.1-0.1,0.2-0.1
		c0.5-0.3,0.5-0.3,0.7,0.3c0.3,0.9,0.3,1.8,0.1,2.7c-0.4,1.6-1.1,3.1-1.9,4.4c-0.1,0.1-0.2,0.2-0.3,0.3
		C15.5,26.4,15.3,26.4,15.1,26.1"/>
	<path id="Path_11" class="st4" d="M5.4,18.9c-0.3,1.2-0.3,2.6,0.3,3.8c0.4,1.1,0.9,2.2,1.6,3.2c0.1,0.1,0.1,0.2,0,0.3l0,0
		c-0.1,0.2-0.3,0.3-0.5,0.3c-0.6-0.8-1.1-1.7-1.5-2.6c-0.5-1-0.8-2.1-0.9-3.2c-0.1-0.6,0.1-1.2,0.3-1.7c0.2-0.4,0.2-0.4,0.6-0.2
		C5.3,18.8,5.3,18.8,5.4,18.9"/>
	<path id="Path_12" class="st5" d="M16.5,26.7c0.9-1.4,1.6-2.9,2-4.4c0.1-0.3,0.2-0.2,0.3,0c0.5,0.5,0.7,1.2,0.6,1.9
		c-0.1,0.6-0.2,1.1-0.5,1.6c-0.2,0.5-0.7,0.8-1.2,0.9C17.4,26.7,16.9,26.7,16.5,26.7"/>
	<path id="Path_13" class="st5" d="M5.3,26.7c-0.9,0.2-1.8-0.5-2-1.4l0,0C3,24.6,2.9,23.8,3.2,23c0.1-0.3,0.3-0.6,0.5-0.8
		c0.1-0.1,0.2-0.2,0.3,0c0.4,1.5,1.1,2.9,1.9,4.2c0,0.3,0,0.3-0.2,0.3H5.3z"/>
	<path id="Path_14" class="st6" d="M19.9,6.2c-0.6-0.9-1.4-1.8-2.2-2.5c-0.5-0.4-0.5-0.4,0-0.9s1-1,1.6-1.4c0.1,0.1,0.2,0.2,0.2,0.3
		c0.3,0.8,0.4,1.6,0.5,2.5c0.1,0.4,0.1,0.9,0,1.3C20.2,5.7,20.2,6,19.9,6.2"/>
	<path id="Path_15" class="st6" d="M3.1,1.4c0.8,0.4,1.4,1,1.9,1.7c0.1,0.1,0.1,0.2,0,0.3C4,4.2,3.2,5.1,2.6,6.2
		C2.4,6.1,2.3,5.9,2.3,5.7c0-1.2,0.1-2.5,0.5-3.7C2.8,1.7,2.9,1.5,3.1,1.4"/>
	<path id="Path_16" class="st7" d="M17.8,1.7c-0.6,0.2-1.1,0.5-1.5,0.9c-0.4,0.5-1,0.6-1.6,0.3c-1.4-0.6-3-0.8-4.5-0.6
		C9.1,2.4,8,2.7,7,3.2c-0.1,0.1-0.2,0-0.3,0C6.1,2.8,5.6,2.3,5,1.9C4.9,1.8,4.8,1.8,4.7,1.8C4.3,1.5,3.9,1.2,3.5,0.9
		c0.4,0,0.7,0.2,1,0.4c0.7,0.4,1.4,0.8,2,1.4C6.6,2.9,6.9,3,7.2,2.8c2.6-1.2,5.5-1.2,8.1,0c0.2,0.1,0.5,0.1,0.6-0.1
		c0.8-0.7,1.6-1.3,2.6-1.8c0.1,0,0.2-0.1,0.3-0.1c0,0,0,0,0.1,0C18.5,1.2,18.2,1.5,17.8,1.7"/>
	<path id="Path_17" class="st5" d="M0.7,18.8c0-0.2,0.1-0.5,0.2-0.7c0.3,0.7,0.7,1.4,1.2,1.9c0.4,0.4,0.8,0.7,1.3,0.9
		c0.3,0.2,0.3,0.3,0,0.6c-0.3,0.2-0.6,0.5-0.8,0.9c-0.2,0-0.3,0-0.4-0.2c-0.8-0.6-1.4-1.5-1.6-2.5C0.6,19.4,0.6,19.1,0.7,18.8"/>
	<path id="Path_18" class="st8" d="M3.1,1.4C2.6,2.8,2.4,4.2,2.5,5.7c0,0.2,0,0.3,0.1,0.5C2.4,6.5,2.2,6.9,2,7.3
		C1.9,7,1.8,6.6,1.8,6.3c-0.1-1.4,0-2.8,0.4-4.2c0-0.2,0.1-0.3,0.2-0.5C2.6,1,2.6,1,3.1,1.4"/>
	<path id="Path_19" class="st8" d="M19.9,6.2c0.1-1.3,0-2.6-0.3-3.8c-0.1-0.3-0.2-0.7-0.3-1l0,0C19.9,1,19.9,1,20.1,1.5
		c0.4,1,0.6,2.1,0.6,3.1c0,0.8,0,1.5-0.1,2.2c0,0.1,0,0.2-0.1,0.3C20.3,6.9,20.1,6.5,19.9,6.2"/>
	<path id="Path_20" class="st9" d="M10.1,25.3c0.7,0.4,1.5,0.4,2.2,0c0,0.4,0,0.7,0,1.1c0,0.2,0,0.3-0.2,0.3h-1.9
		c-0.2,0-0.3,0-0.2-0.2C10.1,26.1,10.1,25.7,10.1,25.3"/>
	<path id="Path_21" class="st3" d="M0.7,18.8c0.1,1.4,0.8,2.8,2,3.6c-0.1,0.2-0.2,0.5-0.2,0.7s-0.1,0.2-0.2,0.1
		C0.9,22.1,0.2,20.4,0.7,18.8"/>
	<path id="Path_22" class="st10" d="M10.9,21.8c-0.5-0.2-0.8-0.7-0.6-1.3s0.7-0.8,1.3-0.6c0.1,0,0.2,0.1,0.2,0.1
		c0.4,0.5,0.3,1.2-0.2,1.6C11.4,21.7,11.1,21.8,10.9,21.8"/>
	<path id="Path_23" class="st11" d="M5.2,17.9c0-0.3,0-0.3,0.3-0.2c1.4,0.5,2.8,0.8,4.3,0.9c0.4,0,0.5,0,0.4,0.6
		c0,0.4-0.3,0.2-0.5,0.2c0,0-0.1,0-0.2,0c0-0.1,0.1-0.1,0.2-0.1C8.1,19,6.6,18.6,5.2,17.9"/>
	<path id="Path_24" class="st11" d="M12.9,19.2c-0.6,0.1-0.6,0.1-0.6-0.4c0-0.3,0.1-0.3,0.3-0.3c1.1,0,2.2-0.2,3.3-0.5
		c0.4-0.1,0.8-0.2,1.1-0.3c0.1,0,0.3-0.1,0.2,0.1c-0.2,0.3-0.6,0.5-0.9,0.6C15.2,18.8,14,19.1,12.9,19.2
		C12.9,19.1,12.8,19.1,12.9,19.2C12.8,19.2,12.8,19.2,12.9,19.2"/>
	<path id="Path_25" class="st12" d="M7.4,26.1c0.7-0.2,1.4-0.1,2,0.3c0,0.4-0.1,0.7-0.5,0.8c-0.4,0-0.8,0-1.2,0
		c0-0.1,0.2-0.1,0.3-0.1c-0.2-0.1-0.3-0.3-0.5-0.5C7.4,26.4,7.3,26.3,7.4,26.1"/>
	<path id="Path_26" class="st13" d="M13.1,26.4c0.6-0.4,1.3-0.5,1.9-0.3c0.2,0.1,0,0.2,0,0.3c-0.2,0.3-0.4,0.5-0.6,0.7
		c-0.2,0.2-0.5,0-0.7,0C13.3,27.1,13.1,26.9,13.1,26.4"/>
	<path id="Path_27" class="st14" d="M12.9,19.2c-0.2,0-0.5,0.1-0.5-0.1s0.3-0.1,0.4-0.1c1.1-0.1,2.2-0.4,3.3-0.7
		c0.4-0.1,0.7-0.3,1.1-0.5c0,0.2-0.1,0.3-0.3,0.3c-1.1,0.5-2.2,0.9-3.4,1C13.3,19.2,13.1,19.2,12.9,19.2"/>
	<path id="Path_28" class="st15" d="M5.2,17.9c0.1-0.1,0.2,0,0.3,0.1c1.2,0.6,2.5,0.9,3.8,1c0.2,0,0.4,0,0.6,0.1
		c0.1,0,0.2,0,0.1,0.1c0,0.1-0.1,0.1-0.2,0.1H9.6c-1.4-0.1-2.9-0.5-4.1-1.1C5.3,18.1,5.2,18,5.2,17.9"/>
	<path id="Path_29" class="st16" d="M13.6,27.2c0.7,0.1,1-0.5,1.4-0.9v-0.2h0.1c0.2,0.1,0.5,0.2,0.7,0.3
		C15.3,27.2,14.4,27.5,13.6,27.2"/>
	<path id="Path_30" class="st17" d="M7.4,26.1c0.2,0.5,0.5,0.6,0.8,1c-0.1,0.1-0.4,0-0.5,0.1c-0.4-0.1-0.8-0.3-1.1-0.7
		c0.2-0.1,0.3-0.2,0.5-0.3C7.2,26.2,7.3,26.2,7.4,26.1"/>
	<path id="Path_31" class="st18" d="M10.9,21.8c0.9-0.4,1-0.6,0.8-1.9c0.5,0.3,0.7,0.9,0.4,1.4C11.9,21.7,11.4,21.9,10.9,21.8"/>
	<path id="Path_32" class="st19" d="M11.3,19.2c-0.2,0-0.4,0.1-0.4-0.3c0-0.3,0.2-0.3,0.4-0.3s0.4-0.1,0.4,0.3S11.4,19.1,11.3,19.2"
		/>
	<path id="Path_33" class="st17" d="M7.7,27.2c0.4,0,0.8,0,1.2,0C8.5,27.3,8.1,27.3,7.7,27.2"/>
	<path id="Path_34" class="st0" d="M4.8,9.2c0-0.8,0.6-1.4,1.3-1.4c0.8-0.1,1.4,0.5,1.5,1.3c0.1,0.4-0.1,0.8-0.5,1
		c-0.5,0.3-1.1,0.3-1.7,0.2C5,10.2,4.7,9.7,4.8,9.2"/>
	<path id="Path_35" class="st0" d="M16.5,10.3c-0.3,0-0.6-0.1-0.9-0.2C15,10,14.7,9.4,14.8,8.9c0-0.1,0-0.2,0.1-0.2
		c0.3-0.7,0.9-1,1.6-0.9s1.2,0.8,1.2,1.5C17.7,10,17.3,10.3,16.5,10.3"/>
	<path id="Path_36" class="st20" d="M8.4,6.3c0,0.5-0.4,0.9-0.9,0.8H7.4H7.3C6.7,7,6.3,6.7,6.4,6.2c0.1-0.6,0.7-1,1.2-0.9
		C8,5.3,8.4,5.8,8.4,6.3"/>
	<path id="Path_37" class="st20" d="M14.1,6.3c0-0.5,0.4-0.9,0.9-1c0.6,0,1.1,0.4,1.2,1c0,0.2-0.1,0.5-0.3,0.6
		c-0.4,0.3-1,0.3-1.4,0.1C14.3,6.9,14.1,6.6,14.1,6.3"/>
	<path id="Path_38" class="st0" d="M9.6,10.4c0.5-0.6,1.2-0.9,2-0.7c0.2,0,0.4,0,0.5,0.1c0.5,0.1,0.9,0.6,0.8,1.1l0,0
		c-0.1,0.5-0.3,0.9-0.8,1.1c-0.3,0.2-0.3,0.2,0,0.5c0.6,0.3,0.9,0.3,1.3-0.2c0.1-0.2,0.2-0.4,0.3-0.6c0.1-0.1,0.2-0.2,0.4-0.2h0.1
		c0.2,0.1,0.2,0.2,0.1,0.4l0,0c-0.2,0.5-0.5,0.9-0.9,1.1c-0.1,0.1-0.2,0.2-0.3,0.3c-0.1,0.6-0.3,1.1-0.8,1.5
		c-0.5,0.6-1.5,0.7-2.1,0.1c0,0,0,0-0.1-0.1c-0.4-0.4-0.7-1-0.8-1.6c0-0.2-0.1-0.3-0.3-0.4c-0.4-0.3-0.7-0.6-0.9-1.1
		c-0.1-0.1,0-0.3,0.1-0.4l0,0c0.1-0.1,0.3,0,0.4,0.1v0.1c0.1,0.2,0.2,0.4,0.3,0.6c0.3,0.4,0.8,0.5,1.2,0.2c0.1,0,0.1-0.1,0.1-0.1
		c0.2-0.2,0-0.3-0.1-0.4C9.7,11.7,9.4,11,9.6,10.4"/>
	<path id="Path_39" class="st21" d="M9.6,10.4c-0.1,1,0.5,1.5,1.3,1.8c-0.1,0.1-0.2,0.2-0.4,0.3C9.7,12.1,9.3,11.2,9.6,10.4
		L9.6,10.4"/>
	<path id="Path_40" class="st22" d="M12.1,12.5c-0.2-0.1-0.4-0.2-0.5-0.3c0.6-0.2,1.2-0.6,1.4-1.3c0.1,0.3,0.1,0.6-0.1,0.8
		c-0.2,0.2-0.4,0.4-0.6,0.6C12.1,12.4,12,12.4,12.1,12.5"/>
	<path id="Path_41" class="st23" d="M6.4,8.3c0.3,0,0.4,0.1,0.4,0.4c0,0.2-0.2,0.5-0.4,0.5l0,0C6.1,9.2,5.9,9,5.9,8.7
		C5.9,8.5,6.1,8.3,6.4,8.3C6.3,8.3,6.4,8.3,6.4,8.3"/>
	<path id="Path_42" class="st24" d="M16.6,8.8c0,0.2-0.2,0.4-0.4,0.4c-0.3,0-0.5-0.2-0.5-0.5c0-0.2,0.2-0.5,0.4-0.5
		C16.4,8.3,16.6,8.5,16.6,8.8L16.6,8.8"/>
	<path id="Path_43" class="st25" d="M11.2,10.8c-0.3,0-0.5,0-0.8-0.1c-0.3-0.2-0.3-0.4,0-0.6c0.5-0.2,1.1-0.2,1.6,0
		c0.3,0.2,0.3,0.4,0,0.6C11.8,10.9,11.5,10.9,11.2,10.8"/>
	<path id="Path_44" class="st26" d="M12,14.3c-0.2,0.4-0.7,0.6-1.1,0.5c-0.2-0.1-0.4-0.2-0.5-0.5c0-0.1,0.1-0.2,0.2-0.2
		C11.1,14,11.6,14,12,14.3"/>
	<path id="Path_45" class="st27" d="M12,14.3c-0.5-0.2-1.1-0.2-1.6,0c-0.2-0.1-0.2-0.3,0-0.3c0.5-0.2,1-0.2,1.6,0
		C12.3,14.1,12.1,14.2,12,14.3"/>
	<path id="Path_86" class="st6" d="M87.3,8.2c1.3-0.1,2.6-0.1,3.8,0.1c1.2,0.1,2.3,0.6,3.2,1.5c0.6,0.7,1,1.6,1.2,2.6
		c0.4,2.3,0.2,4.7-0.6,7c-0.8,2.7-3.3,4.6-6.1,4.6c-1.3,0.1-2.7,0.1-4-0.1c-0.2,0-0.4-0.1-0.6-0.2c-0.7-0.2-1.2-1-1.2-1.7
		c0-1.3,0.1-2.6,0.2-3.9c0.2-3.1,0.6-6.1,0.6-9.2c0-0.4,0.1-0.5,0.5-0.5C85.3,8.3,86.3,8.3,87.3,8.2 M91.7,14.9
		c0-0.6-0.1-1.3-0.3-1.9c-0.2-0.7-0.8-1.3-1.6-1.4c-0.7-0.1-1.4-0.1-2,0c-0.2,0-0.3,0.1-0.3,0.3c-0.1,2.8-0.3,5.6-0.6,8.3
		c0,0.3,0,0.3,0.3,0.3h0.2c1.8,0.3,3.5-0.8,3.9-2.6C91.6,17,91.7,15.9,91.7,14.9"/>
	<path id="Path_87" class="st6" d="M40.2,15.7c0,0.1,0.1,0.1,0.2,0.1c1.1,0.4,1.9,1.4,1.9,2.6c0.1,0.6,0.1,1.3-0.1,1.9
		c-0.3,1.5-1.4,2.6-2.8,3.1c-2.1,0.7-4.3,0.8-6.4,0.3c-1.1-0.1-1.9-1.1-1.8-2.2v-0.1c0-1.6,0.2-3.1,0.3-4.7c0.2-2.6,0.5-5.3,0.6-7.9
		c0-0.6,0-0.6,0.6-0.6c1.6,0,3.2-0.1,4.8,0c0.9,0,1.8,0.3,2.7,0.6c1.4,0.5,2.3,1.8,2.2,3.3c0,0.6-0.1,1.2-0.3,1.8
		C41.8,14.8,41.1,15.4,40.2,15.7 M36.6,21.2c0.9,0.1,1.7-0.4,2-1.2c0.2-0.5,0.2-1,0-1.5c-0.1-0.6-0.6-1-1.1-1.1
		c-0.6-0.1-1.2-0.1-1.9,0c-0.2,0-0.3,0.1-0.3,0.3c0,0.7-0.1,1.5-0.1,2.2c0,0.3-0.3,0.8,0.1,1c0.3,0.2,0.7,0.2,1.1,0.2L36.6,21.2z
		 M36.9,11.2c-0.3,0-0.6,0-0.9,0.1c-0.1,0-0.2,0-0.2,0.2c0,0.9-0.1,1.7-0.1,2.6c0,0.1,0,0.2,0.2,0.2c0.7,0.2,1.3,0.2,2,0
		s1.1-0.8,1.1-1.5c0.1-0.7-0.4-1.3-1-1.5C37.5,11.2,37.2,11.2,36.9,11.2"/>
	<path id="Path_88" class="st6" d="M118.1,13.2c0.1-0.3,0.1-0.6,0-0.9c0-0.3,0.1-0.5,0.5-0.4c0.5,0,0.9,0,1.4,0
		c0.9,0,1.6,0.7,1.6,1.6c0,0,0,0,0,0.1c0.1,1,0,2-0.1,3c-0.1,2.2-0.3,4.4-0.6,6.6c-0.1,0.5-0.2,1.1-0.3,1.6
		c-0.3,1.2-1.2,2.2-2.4,2.7c-2,0.8-4.2,0.9-6.2,0.2c-0.4-0.1-0.8-0.4-1.2-0.7c-0.5-0.4-0.8-1.2-0.6-1.8c0.3-0.6,0.9-1.1,1.6-1.1
		c0.4-0.1,0.8,0.1,1,0.4c0.6,0.8,1.6,1.2,2.5,0.9c0.9-0.1,1.6-0.8,1.8-1.7c0.2-0.7,0.3-1.4,0.3-2.2c-0.1,0-0.1,0.1-0.2,0.2
		c-0.7,1.1-2,1.7-3.3,1.6c-1.9,0-3.5-1.4-3.6-3.2c-0.4-2-0.2-4,0.7-5.8c1-1.9,3.2-2.9,5.3-2.4C117,12,117.7,12.5,118.1,13.2
		C117.9,13.2,118,13.2,118.1,13.2L118.1,13.2 M117.9,16.8c0-0.5-0.1-0.9-0.2-1.4c-0.2-0.6-0.7-1-1.3-0.9c-0.8-0.1-1.5,0.4-1.9,1.1
		c-0.5,1.1-0.7,2.3-0.4,3.5c0.1,0.5,0.4,0.9,0.9,1c1,0.3,2-0.2,2.4-1.1C117.8,18.4,118,17.6,117.9,16.8"/>
	<path id="Path_89" class="st6" d="M76.7,21.4c-0.4,0.6-0.9,1-1.5,1.3c-1.2,0.6-2.7,0.6-3.9-0.1c-1-0.6-1.6-1.6-1.6-2.8
		c-0.1-1.1-0.1-2.2,0.1-3.4c0.1-1.3,0.2-2.6,0.3-3.9c0-0.6,0.2-0.8,0.9-0.8c0.4,0,0.7,0,1.1,0c0.9,0,1.6,0.6,1.7,1.5
		c0,0.1,0,0.2,0,0.3c0,0.9-0.1,1.9-0.2,2.8c-0.1,0.8-0.2,1.6-0.2,2.4s0.6,1.4,1.4,1.4c0.3,0,0.6-0.1,0.9-0.3c0.5-0.4,0.9-1,1.1-1.7
		c0.3-1,0.4-2.1,0.5-3.1c0.1-0.9,0.1-1.8,0.2-2.7c0-0.5,0.2-0.6,0.6-0.6c0.5,0,1.1,0,1.6,0.1c0.8,0.1,1.3,0.8,1.3,1.6
		c0,1.6-0.2,3.1-0.3,4.7c-0.1,1.7-0.3,3.3-0.4,5c0,2.5-2,4.5-4.4,4.7c-1.5,0.2-3,0.1-4.4-0.4c-0.6-0.2-1.1-0.5-1.6-0.9
		c-0.6-0.5-0.7-1.5-0.2-2.1c0.2-0.2,0.5-0.4,0.8-0.5c0.2-0.1,0.4-0.1,0.6-0.1c0.7-0.1,0.7-0.1,1.1,0.5s1,0.9,1.7,0.9
		c1.2,0.3,2.4-0.5,2.6-1.7c0-0.1,0-0.1,0-0.2C76.6,22.8,76.7,22.1,76.7,21.4"/>
	<path id="Path_90" class="st6" d="M60.6,13.4c0-0.1,0.1-0.2,0.2-0.2c0.7-1.2,2.2-1.8,3.6-1.6c1.6,0.1,2.9,1.3,3.2,2.8
		c0.6,2.1,0.4,4.3-0.5,6.3c-0.8,1.9-2.6,3.1-4.6,3.2c-0.9,0.1-1.8,0.1-2.7-0.1c-1.8-0.3-3.1-1.8-3.2-3.6c-0.1-1.3,0-2.6,0.1-3.9
		c0.2-2.8,0.5-5.5,0.6-8.2c0-0.4,0-0.5,0.5-0.5s1,0,1.6,0c0.9,0.1,1.6,0.9,1.5,1.8l0,0c0,1.2-0.1,2.4-0.2,3.6L60.6,13.4L60.6,13.4z
		 M60.1,18.2c0,0.7,0.1,1.3,0.3,1.9c0.2,0.7,0.8,1.1,1.5,1c0.7,0,1.2-0.4,1.5-1c0.7-1.4,0.9-3,0.5-4.5c-0.1-0.7-0.8-1.2-1.5-1.1
		c-0.8,0-1.5,0.5-1.8,1.2C60.2,16.5,60.1,17.4,60.1,18.2"/>
	<path id="Path_91" class="st6" d="M50.2,22.2c-0.2,0.2-0.4,0.5-0.6,0.7c-1.2,1.2-3,1.5-4.6,0.8c-1.1-0.5-1.7-1.6-1.6-2.7
		c0.1-1.6,1.2-2.9,2.7-3.4c1.3-0.5,2.6-0.7,4-0.7c0.3,0,0.4-0.1,0.4-0.3c0-0.4,0-0.7,0-1.1c-0.1-0.4-0.4-0.8-0.8-0.8
		c-0.8-0.3-1.6,0.1-1.9,0.9c0,0.1-0.1,0.2-0.1,0.2c0,0.1,0,0.2-0.1,0.3c-0.2,0.6-0.2,0.7-0.9,0.6c-0.2,0-0.4,0-0.6,0
		c-0.9,0-1.5-0.8-1.5-1.6c0-0.1,0-0.3,0.1-0.4c0.2-0.9,0.7-1.7,1.5-2.1c0.8-0.4,1.7-0.7,2.5-0.7c1-0.1,2.1-0.1,3.1,0.2
		c1.5,0.3,2.5,1.6,2.5,3.1c0,1.1-0.1,2.1-0.2,3.2c0,0.5-0.1,1.1-0.1,1.6c-0.1,0.5,0.3,1,0.8,1.1l0,0c0.4,0.1,0.4,0.3,0.4,0.6
		c0,1.1-0.8,2.1-1.9,2.4c-0.5,0.1-1,0.1-1.5,0c-0.7-0.2-1.2-0.7-1.4-1.3C50.3,22.6,50.2,22.4,50.2,22.2 M49.8,18.7
		c-0.5,0-1.1,0.1-1.6,0.3c-0.3,0.1-0.6,0.3-0.8,0.6c-0.2,0.3-0.2,0.7,0,1s0.5,0.5,0.9,0.4c0.4,0,0.9-0.2,1.2-0.5
		c0.4-0.4,0.7-1,0.8-1.6C50.3,18.7,50.3,18.6,49.8,18.7"/>
	<path id="Path_92" class="st6" d="M97.1,18.7c0-1.1,0.1-2.3,0.6-3.4c0.7-1.9,2.3-3.3,4.4-3.6c1.1-0.2,2.2-0.2,3.3,0
		c1.8,0.3,3.2,1.8,3.4,3.7c0.3,1.7,0,3.5-0.7,5.1c-0.8,2-2.7,3.3-4.8,3.4c-0.8,0.1-1.7,0.1-2.5-0.1c-1.8-0.3-3.2-1.7-3.5-3.5
		C97.1,19.8,97,19.2,97.1,18.7 M105,17c0-0.5,0-1-0.2-1.5c-0.2-0.6-0.7-1-1.4-1c-1-0.1-1.9,0.5-2.2,1.4c-0.3,0.8-0.5,1.7-0.4,2.6
		c0,0.6,0.1,1.2,0.3,1.8c0.2,0.5,0.8,0.9,1.4,0.9c0.8,0,1.6-0.5,1.9-1.3C104.8,18.9,105,18,105,17"/>
	<path id="Path_93" class="st6" d="M129.7,11.6c0.7,0,1.4,0.1,2.1,0.3c1.5,0.4,2.4,1.8,2.1,3.3c-0.1,1.3-0.9,2.4-2.1,2.9
		c-1.2,0.6-2.5,0.9-3.8,0.9c-0.3,0-0.5,0-0.7,0s-0.3,0-0.2,0.3c0,1.1,0.9,2,2,2c0.2,0,0.3,0,0.5-0.1c0.4-0.1,0.8-0.4,1-0.7
		c0.3-0.5,0.5-0.5,1.1-0.3c0.8,0.2,1.3,1.1,1.1,1.9c-0.1,0.3-0.2,0.5-0.4,0.7c-0.6,0.6-1.4,1-2.2,1.1c-1.3,0.3-2.7,0.2-3.9-0.2
		c-1.5-0.5-2.6-1.7-2.8-3.2c-0.5-2.1-0.1-4.4,1.1-6.3C125.7,12.5,127.6,11.5,129.7,11.6L129.7,11.6 M129.1,14.5
		c-0.5,0-1,0.3-1.3,0.8c-0.3,0.6-0.5,1.2-0.6,1.8c0,0.2,0,0.2,0.2,0.2c0.3,0,0.5,0,0.7-0.1c0.6-0.1,1.3-0.3,1.7-0.8
		c0.3-0.4,0.4-0.9,0.2-1.3C129.9,14.8,129.5,14.5,129.1,14.5"/>
</g>
</svg>
