<?xml version="1.0" encoding="utf-8"?>
<!-- Generator: Adobe Illustrator 26.1.0, SVG Export Plug-In . SVG Version: 6.00 Build 0)  -->
<svg version="1.1" id="Layer_1" xmlns="http://www.w3.org/2000/svg" xmlns:xlink="http://www.w3.org/1999/xlink" x="0px" y="0px"
	 viewBox="0 0 439.1 87.5" style="enable-background:new 0 0 439.1 87.5;" xml:space="preserve">
<style type="text/css">
	.st0{fill:#00B897;}
	.st1{fill:#76FCB2;}
	.st2{fill:url(#SVGID_1_);}
	.st3{fill:none;}
</style>
<path class="st0" d="M140.3,61.7L109.5,8.3C102.7-2.8,86.3-3,79.8,8.8L47.4,64.4c-6,10.2,1.4,23,13.5,23h64.8
	C137.9,87.4,147,74.2,140.3,61.7z"/>
<path class="st1" d="M95.8,65.9l-1.9-3.3c-1.8-3.1-5.7-9.7-5.7-9.7L62.1,7.6c-5.2-7.9-15.8-10-23.7-4.8c-2.5,1.6-4.5,3.9-5.8,6.6
	L2.3,61.9C-2.4,70,0.4,80.4,8.6,85.1c2.6,1.5,5.5,2.3,8.5,2.3h108.3C108.7,87.5,103.4,78.8,95.8,65.9z"/>
<linearGradient id="SVGID_1_" gradientUnits="userSpaceOnUse" x1="52.4137" y1="-92.6097" x2="127.2837" y2="-120.2697" gradientTransform="matrix(1 0 0 -1 -13.78 -46.7404)">
	<stop  offset="0" style="stop-color:#53E57A;stop-opacity:0"/>
	<stop  offset="1" style="stop-color:#00A977"/>
</linearGradient>
<path class="st2" d="M95.8,65.9l-1.9-3.3c-1.8-3.1-5.7-9.7-5.7-9.7L71.4,23.3L47.2,64.5c-6,10.2,1.4,23,13.5,23h64.7
	C108.6,87.4,103.4,78.8,95.8,65.9z"/>
<path d="M254.9,82.7V21h51.3v3.9c0,3.1-2.5,5.6-5.6,5.6l0,0h-33V47h33v9.5h-33v16.6h33c3.1,0,5.6,2.5,5.6,5.6l0,0v3.9L254.9,82.7z"
	/>
<path d="M379.8,20.9h-12.1c-2.2,0-4.3,1-5.7,2.7L347.5,42l-14.6-18.3c-1.4-1.7-3.5-2.7-5.7-2.7h-12.1l24.5,30.8l-24.5,30.8h12.1
	c2.2,0,4.3-1,5.7-2.7l14.6-18.2l14.7,18.4c1.4,1.7,3.5,2.7,5.7,2.7H380L355.4,52L379.8,20.9z"/>
<path d="M214.7,76.1l16.8-29.4v35.8h12.8V20.8h-7.9c-2.5,0-4.8,1.3-6,3.5L210.3,61l-20.1-36.7c-1.2-2.2-3.5-3.6-6-3.5h-8v61.7H189
	V46.7l16.8,29.4H214.7z"/>
<path d="M413.2,83.4c-17.5,0.4-32-13.5-32.3-31c0-0.2,0-0.3,0-0.5c0-9.7,3-17.8,8.5-23.3s13.6-8.4,23.2-8.4
	c11.3,0,20.1,3.9,26.5,11.5l-4,3.4c-2.5,2.1-6.2,2.2-8.9,0.2c-3.8-2.8-8.4-4.2-13.1-4c-12.6,0-20,7.6-20,20.4s7.7,20.9,20,20.9
	c4.7,0.1,9.3-1.3,13.1-4c2.7-2,6.3-1.9,8.9,0.2l4,3.4C432.8,79.6,424.2,83.4,413.2,83.4z"/>
<rect x="-22.9" y="-19.5" class="st3" width="772.5" height="126.5"/>
</svg>
