<?xml version="1.0" encoding="utf-8"?>
<!-- Generator: Adobe Illustrator 26.1.0, SVG Export Plug-In . SVG Version: 6.00 Build 0)  -->
<svg version="1.1" id="Layer_1" xmlns="http://www.w3.org/2000/svg" xmlns:xlink="http://www.w3.org/1999/xlink" x="0px" y="0px"
	 viewBox="0 0 130 28" style="enable-background:new 0 0 130 28;" xml:space="preserve">
<style type="text/css">
	.st0{fill:#020202;}
</style>
<path class="st0" d="M3.5,9.9c-0.1,0.2-0.1,0.5-0.1,0.5c0,0,0,0,0,0c-0.2,0.8-0.3,1.6-0.3,2.5c0,0.1,0,0.1,0,0.2c0,1-0.1,2-0.3,3
	l-0.1,0.4c-0.5-0.2-1-0.6-1.5-1.2c-1.4-1.8-0.9-4.6,0.8-5.3C2.6,9.6,3.1,9.7,3.5,9.9L3.5,9.9z"/>
<path class="st0" d="M25.6,15.2c-0.5,0.6-1,1-1.5,1.2L24,16c-0.2-1-0.3-2-0.3-3c0-0.1,0-0.1,0-0.2c0-0.8-0.1-1.7-0.3-2.5l-0.1-0.5
	c0.4-0.2,1-0.2,1.7,0C26.5,10.5,27,13.4,25.6,15.2L25.6,15.2z"/>
<path class="st0" d="M22.5,15.7c-0.2-0.9-0.3-1.7-0.3-2.6c0,0,0-0.1,0-0.1c0-0.7-0.1-1.4-0.3-2.1l-0.2-0.6c-0.1-0.3-0.2-0.6-0.4-0.9
	c-0.1-0.2-0.2-0.4-0.3-0.6c-1-1.9-2.7-3.5-4.6-4.4c-0.3-0.1-0.9-1.6-0.9-1.6l-1.5,0.9c-0.1,0-0.1,0-0.2,0c-0.1,0-0.2,0-0.3,0
	l-0.5-1.2c-1.8,0.6-2.9,1.9-3.2,2C8.1,5.3,6.6,6.9,5.6,8.7C5.5,8.9,5.4,9.1,5.3,9.4C5.1,9.7,5,10,4.9,10.3c0,0-0.2,0.6-0.2,0.6
	c0,0,0,0,0,0c-0.2,0.7-0.3,1.4-0.3,2.1c0,0.1,0,0.1,0,0.1c0,0.9-0.1,1.7-0.3,2.6L4,16.4c0,0,0,0.1,0,0.1c-0.1,0.4-0.1,0.9-0.1,1.4
	c0,3.2,2.3,5.9,5.7,7.2c0.8,0.3,1.6,0.5,2.4,0.6c0.4,0.1,0.9,0.1,1.3,0.1c0,0,0.1,0,0.1,0c5.2,0,9.5-3.5,9.5-7.8
	c0-0.5,0-0.9-0.1-1.4c0,0,0-0.1,0-0.1L22.5,15.7L22.5,15.7z"/>
<path class="st0" d="M56.8,10.7c0.8,0.4,1.4,0.9,1.9,1.6c0.4,0.7,0.7,1.5,0.7,2.4s-0.2,1.7-0.7,2.4c-0.4,0.7-1.1,1.2-1.9,1.6
	c-0.8,0.4-1.8,0.5-2.9,0.5h-2.5v3.5h-2.9V10.2h5.4C55,10.2,56,10.4,56.8,10.7z M55.7,16.3c0.5-0.4,0.7-0.9,0.7-1.6
	c0-0.7-0.2-1.2-0.7-1.6c-0.5-0.4-1.1-0.6-2-0.6h-2.3v4.4h2.3C54.6,16.9,55.3,16.7,55.7,16.3z"/>
<path class="st0" d="M71.1,20.4v2.3h-9.6V10.2h9.4v2.3h-6.5v2.7h5.8v2.3h-5.8v2.9H71.1z"/>
<path class="st0" d="M84.5,17.4c0.4,0.5,0.6,1.2,0.6,2c0,1.1-0.4,1.9-1.3,2.5c-0.8,0.6-2.1,0.9-3.7,0.9h-6.4V10.2h6.1
	c1.5,0,2.7,0.3,3.5,0.9c0.8,0.6,1.2,1.4,1.2,2.4c0,0.6-0.1,1.2-0.4,1.6c-0.3,0.5-0.7,0.9-1.2,1.1C83.5,16.4,84.1,16.8,84.5,17.4
	L84.5,17.4z M76.5,12.4v3h2.9c0.7,0,1.2-0.1,1.6-0.4c0.4-0.3,0.6-0.6,0.6-1.1c0-0.5-0.2-0.9-0.6-1.1c-0.4-0.2-0.9-0.4-1.6-0.4H76.5z
	 M81.6,20.2c0.4-0.3,0.6-0.6,0.6-1.2c0-1-0.8-1.6-2.3-1.6h-3.4v3.1h3.4C80.6,20.6,81.2,20.4,81.6,20.2z"/>
<path class="st0" d="M90.6,22.1c-1-0.6-1.8-1.3-2.4-2.3c-0.6-1-0.9-2.1-0.9-3.3s0.3-2.3,0.9-3.3c0.6-1,1.4-1.8,2.4-2.3
	c1-0.6,2.2-0.8,3.5-0.8c1.3,0,2.5,0.3,3.5,0.8c1,0.6,1.8,1.3,2.4,2.3c0.6,1,0.9,2.1,0.9,3.3s-0.3,2.3-0.9,3.3
	c-0.6,1-1.4,1.8-2.4,2.3c-1,0.6-2.2,0.8-3.5,0.8C92.8,23,91.6,22.7,90.6,22.1z M96,20c0.6-0.3,1.1-0.8,1.4-1.4
	c0.3-0.6,0.5-1.3,0.5-2.1c0-0.8-0.2-1.5-0.5-2.1c-0.3-0.6-0.8-1.1-1.4-1.4c-0.6-0.3-1.3-0.5-2-0.5s-1.4,0.2-2,0.5
	c-0.6,0.3-1.1,0.8-1.4,1.4c-0.3,0.6-0.5,1.3-0.5,2.1c0,0.8,0.2,1.5,0.5,2.1c0.3,0.6,0.8,1.1,1.4,1.4c0.6,0.3,1.3,0.5,2,0.5
	S95.5,20.3,96,20z"/>
<path class="st0" d="M114.4,10.2v12.6h-2.4l-6.2-7.6v7.6H103V10.2h2.4l6.2,7.6v-7.6H114.4z"/>
<path class="st0" d="M117.3,10.2h5.7c1.4,0,2.5,0.3,3.6,0.8c1,0.5,1.8,1.3,2.4,2.2c0.6,0.9,0.9,2,0.9,3.3s-0.3,2.4-0.9,3.3
	c-0.6,0.9-1.4,1.7-2.4,2.2c-1,0.5-2.2,0.8-3.6,0.8h-5.7V10.2z M122.8,20.4c1.2,0,2.2-0.3,3-1c0.7-0.7,1.1-1.6,1.1-2.8
	s-0.4-2.1-1.1-2.8c-0.7-0.7-1.7-1-3-1h-2.6v7.8H122.8z"/>
<path class="st0" d="M35.1,22.7h-3l5.5-12.6h2.8l5.6,12.6h-3l-4-9.7L35.1,22.7L35.1,22.7z"/>
</svg>
