<?xml version="1.0" encoding="utf-8"?>
<!-- Generator: Adobe Illustrator 26.1.0, SVG Export Plug-In . SVG Version: 6.00 Build 0)  -->
<svg version="1.1" id="Layer_1" xmlns="http://www.w3.org/2000/svg" xmlns:xlink="http://www.w3.org/1999/xlink" x="0px" y="0px"
	 viewBox="0 0 508 508" style="enable-background:new 0 0 508 508;" xml:space="preserve">
<style type="text/css">
	.st0{fill:#F24139;}
	.st1{display:none;fill:#F24139;}
	.st2{fill:#FFFFFF;}
</style>
<circle class="st0" cx="254" cy="254" r="254"/>
<path class="st1" d="M450.5,447.7H72.2c-2.2,0-3.9-1.7-3.9-3.9V65.5c0-2.2,1.7-3.9,3.9-3.9h378.4c2.2,0,3.9,1.7,3.9,3.9v378.4
	C454.5,445.9,452.7,447.7,450.5,447.7z"/>
<path class="st2" d="M211.8,209.8h-113c-1,0-1.8-0.8-1.8-1.8V95c0-1,0.8-1.8,1.8-1.8h113c1,0,1.8,0.8,1.8,1.8v113
	C213.6,209,212.8,209.8,211.8,209.8z"/>
<rect x="115.2" y="111.5" class="st0" width="80.1" height="80.1"/>
<g>
	<rect x="130.3" y="126.5" class="st2" width="50" height="50"/>
	<path class="st2" d="M211.8,414h-113c-1,0-1.8-0.8-1.8-1.8v-113c0-1,0.8-1.8,1.8-1.8h113c1,0,1.8,0.8,1.8,1.8v113
		C213.6,413.2,212.8,414,211.8,414z"/>
</g>
<rect x="115.2" y="315.6" class="st0" width="80.1" height="80.1"/>
<g>
	<rect x="130.3" y="330.7" class="st2" width="50" height="50"/>
	<path class="st2" d="M416,209.8h-113c-1,0-1.8-0.8-1.8-1.8V95c0-1,0.8-1.8,1.8-1.8h113c1,0,1.8,0.8,1.8,1.8v113
		C417.8,209,417,209.8,416,209.8z"/>
</g>
<rect x="319.4" y="111.5" class="st0" width="80.1" height="80.1"/>
<g>
	<rect x="334.5" y="126.5" class="st2" width="50" height="50"/>
	<path class="st2" d="M416,414h-113c-1,0-1.8-0.8-1.8-1.8v-113c0-1,0.8-1.8,1.8-1.8h113c1,0,1.8,0.8,1.8,1.8v113
		C417.8,413.2,417,414,416,414z"/>
</g>
<rect x="319.4" y="315.6" class="st0" width="80.1" height="80.1"/>
<g>
	<rect x="334.5" y="330.7" class="st2" width="50" height="50"/>
	<rect x="233.5" y="93.2" class="st2" width="14.5" height="31"/>
	<polygon class="st2" points="271.5,160.9 271.5,152.9 260.5,152.9 260.5,147.8 270.2,147.8 270.2,128.7 280.7,128.7 280.7,108.8 
		266.1,108.8 266.1,116.7 255.7,116.7 255.7,137.5 246,137.5 246,145.6 235.6,145.6 235.6,176.6 250,176.6 250,157.5 257,157.5 
		257,173 271.3,173 271.3,191.9 285.8,191.9 285.8,160.9 	"/>
	<rect x="97.6" y="226.4" class="st2" width="18.8" height="34.9"/>
	<rect x="160.4" y="264.3" class="st2" width="40.3" height="16.4"/>
	<polygon class="st2" points="206.6,230.7 180.6,230.7 180.6,238.9 142.3,238.9 142.3,255.1 182.7,255.1 182.7,247 195.6,247 
		195.6,261.3 221.7,261.3 221.7,245.1 206.6,245.1 	"/>
	<polygon class="st2" points="347.2,250.1 327,250.1 327,235.7 301,235.7 301,245.1 284.5,245.1 284.5,258.4 266,258.4 266,274.6 
		292,274.6 292,261.3 310.7,261.3 310.7,252 321.1,252 321.1,266.5 344.1,266.5 344.1,277.7 370.1,277.7 370.1,261.3 347.2,261.3 	
		"/>
	<rect x="360.9" y="239.6" class="st2" width="26" height="16.4"/>
	<rect x="391" y="228.7" class="st2" width="26" height="16.4"/>
	<rect x="231.4" y="242" class="st2" width="26" height="16.4"/>
	<rect x="117.8" y="264.5" class="st2" width="26" height="16.4"/>
	<rect x="269.1" y="382.9" class="st2" width="14.5" height="31.3"/>
	<polygon class="st2" points="271.1,361.5 281.6,361.5 281.6,330.2 267,330.2 267,349.2 260.1,349.2 260.1,333.8 245.6,333.8 
		245.6,318.6 246.2,318.6 246.2,302.4 223.6,302.4 223.6,318.6 231.1,318.6 231.1,345.9 245.5,345.9 245.5,354 256.6,354 
		256.6,359.2 246.8,359.2 246.8,390.3 261.4,390.3 261.4,369.5 271.1,369.5 	"/>
</g>
</svg>
