<svg width="24" height="25" viewBox="0 0 24 25" fill="none" xmlns="http://www.w3.org/2000/svg">
<path d="M19.5901 7.19C18.5933 6.97079 17.6915 6.44144 17.0142 5.67789C16.3369 4.91435 15.9189 3.95587 15.8201 2.94V2.5H12.3701V16.17C12.3708 16.7766 12.1807 17.368 11.8266 17.8604C11.4725 18.3529 10.9724 18.7215 10.3972 18.914C9.82199 19.1065 9.2008 19.1131 8.62162 18.9329C8.04244 18.7527 7.53464 18.3948 7.17015 17.91C6.84359 17.4808 6.64363 16.9689 6.59287 16.432C6.54212 15.8951 6.64259 15.3548 6.88292 14.872C7.12326 14.3892 7.49388 13.9834 7.95286 13.7003C8.41184 13.4172 8.94088 13.2681 9.48014 13.27C9.77839 13.2683 10.0751 13.3121 10.3601 13.4V9.9C10.0285 9.85893 9.69425 9.84222 9.36015 9.85C8.12946 9.88288 6.93506 10.2739 5.92323 10.9753C4.91139 11.6766 4.12604 12.6578 3.66332 13.7986C3.20061 14.9395 3.08062 16.1905 3.31806 17.3986C3.5555 18.6066 4.14006 19.7191 5.00015 20.6C5.88163 21.4962 7.00964 22.1101 8.24084 22.3638C9.47204 22.6175 10.7509 22.4994 11.9148 22.0246C13.0787 21.5498 14.0753 20.7397 14.7778 19.6973C15.4803 18.6548 15.857 17.4271 15.8601 16.17V9.17C17.2516 10.1639 18.9202 10.6956 20.6301 10.69V7.29C20.2942 7.29139 19.9591 7.25787 19.6301 7.19H19.5901Z" fill="#F24139"/>
</svg>
