<svg width="24" height="25" viewBox="0 0 24 25" fill="none" xmlns="http://www.w3.org/2000/svg">
<g clip-path="url(#clip0_115_513)">
<path d="M20.3175 4.99295C18.7875 4.30295 17.1475 3.79295 15.4325 3.50295C15.4172 3.50002 15.4014 3.50191 15.3872 3.50836C15.3731 3.51481 15.3613 3.5255 15.3535 3.53895C15.1435 3.90795 14.9095 4.38895 14.7455 4.76895C12.9266 4.49719 11.0774 4.49719 9.25848 4.76895C9.07582 4.34781 8.86983 3.93717 8.64148 3.53895C8.63374 3.52533 8.62203 3.5144 8.60792 3.50761C8.5938 3.50082 8.57795 3.4985 8.56248 3.50095C6.84848 3.79095 5.20848 4.30095 3.67748 4.99195C3.66431 4.99747 3.65314 5.0069 3.64548 5.01895C0.533481 9.59395 -0.319519 14.056 0.0994806 18.462C0.100647 18.4727 0.103996 18.4832 0.109326 18.4926C0.114655 18.5021 0.121853 18.5104 0.130481 18.517C1.94687 19.8394 3.97282 20.8468 6.12348 21.497C6.13847 21.5016 6.15451 21.5016 6.16949 21.4969C6.18448 21.4923 6.19772 21.4832 6.20748 21.4709C6.66948 20.8509 7.08148 20.1959 7.43348 19.5079C7.45448 19.4679 7.43448 19.4199 7.39248 19.4039C6.74649 19.1607 6.12057 18.8671 5.52048 18.5259C5.5097 18.5198 5.50061 18.5111 5.49404 18.5005C5.48746 18.49 5.48361 18.478 5.48281 18.4656C5.48202 18.4532 5.48432 18.4408 5.48949 18.4295C5.49467 18.4183 5.50257 18.4084 5.51248 18.4009C5.63848 18.3079 5.76448 18.211 5.88448 18.114C5.89528 18.1052 5.90829 18.0997 5.92206 18.0979C5.93584 18.0961 5.94983 18.0982 5.96248 18.104C9.88948 19.868 14.1425 19.868 18.0235 18.104C18.0362 18.0979 18.0503 18.0955 18.0643 18.0971C18.0782 18.0987 18.0915 18.1042 18.1025 18.1129C18.2225 18.2109 18.3475 18.3079 18.4745 18.4009C18.4845 18.4083 18.4925 18.418 18.4979 18.4292C18.5032 18.4403 18.5057 18.4527 18.5051 18.4651C18.5045 18.4774 18.5008 18.4895 18.4945 18.5001C18.4881 18.5107 18.4791 18.5196 18.4685 18.5259C17.8705 18.8699 17.2485 19.161 16.5955 19.403C16.5855 19.4066 16.5763 19.4123 16.5687 19.4198C16.561 19.4272 16.5551 19.4362 16.5512 19.4462C16.5473 19.4561 16.5456 19.4668 16.5462 19.4774C16.5467 19.4881 16.5496 19.4985 16.5545 19.5079C16.9145 20.195 17.3265 20.8489 17.7795 21.4699C17.7889 21.4827 17.802 21.4922 17.8171 21.4972C17.8321 21.5022 17.8483 21.5025 17.8635 21.4979C20.0178 20.8496 22.0471 19.8417 23.8655 18.517C23.8744 18.5107 23.8818 18.5027 23.8873 18.4934C23.8928 18.4841 23.8963 18.4737 23.8975 18.4629C24.3975 13.3689 23.0595 8.94295 20.3485 5.02095C20.3418 5.0082 20.3308 4.99827 20.3175 4.99295ZM8.02048 15.7789C6.83848 15.7789 5.86348 14.7099 5.86348 13.3989C5.86348 12.0869 6.81948 11.0189 8.02048 11.0189C9.23048 11.0189 10.1965 12.0959 10.1775 13.3989C10.1775 14.7109 9.22148 15.7789 8.02048 15.7789ZM15.9955 15.7789C14.8125 15.7789 13.8385 14.7099 13.8385 13.3989C13.8385 12.0869 14.7935 11.0189 15.9955 11.0189C17.2055 11.0189 18.1715 12.0959 18.1525 13.3989C18.1525 14.7109 17.2065 15.7789 15.9955 15.7789Z" fill="#F24139"/>
</g>
<defs>
<clipPath id="clip0_115_513">
<rect width="24" height="24" fill="white" transform="translate(0 0.5)"/>
</clipPath>
</defs>
</svg>
