<svg width="29" height="29" viewBox="0 0 29 29" fill="none" xmlns="http://www.w3.org/2000/svg">
<path d="M23.639 7.92402L25.375 6.25596V5.89062H19.3626L15.0777 16.607L10.2038 5.89062H3.89971V6.25596L5.92744 8.7085C6.12568 8.88975 6.22764 9.15596 6.20215 9.42217V19.0596C6.26445 19.4079 6.154 19.7619 5.91045 20.014L3.625 22.7979V23.1575H10.099V22.7922L7.81641 20.0168C7.69411 19.8926 7.60211 19.7419 7.54759 19.5764C7.49306 19.4108 7.47748 19.2349 7.50205 19.0624V10.7249L13.1859 23.1632H13.8458L18.7339 10.7249V20.6342C18.7339 20.8947 18.7339 20.9485 18.564 21.1213L16.8053 22.829V23.1943H25.3354V22.829L23.639 21.1609C23.4917 21.0477 23.4152 20.8579 23.4464 20.6738V8.41113C23.4317 8.32013 23.4419 8.22685 23.4758 8.14112C23.5097 8.0554 23.566 7.9804 23.639 7.92402Z" fill="#F24139"/>
</svg>
