<svg width="24" height="25" viewBox="0 0 24 25" fill="none" xmlns="http://www.w3.org/2000/svg">
<g clip-path="url(#clip0_115_524)">
<path fill-rule="evenodd" clip-rule="evenodd" d="M24 12.5C24 19.127 18.627 24.5 12 24.5C5.373 24.5 0 19.127 0 12.5C0 5.873 5.373 0.5 12 0.5C18.627 0.5 24 5.873 24 12.5ZM19.688 11.558C19.882 11.835 19.992 12.162 20.004 12.5C20.0092 12.8307 19.9207 13.1561 19.7487 13.4385C19.5767 13.721 19.3282 13.9489 19.032 14.096C19.046 14.272 19.046 14.448 19.032 14.624C19.032 17.312 15.9 19.496 12.036 19.496C8.172 19.496 5.04 17.312 5.04 14.624C5.02649 14.4483 5.02649 14.2717 5.04 14.096C4.81117 13.9889 4.60825 13.8335 4.44519 13.6405C4.28213 13.4475 4.16279 13.2215 4.09537 12.978C4.02796 12.7345 4.01408 12.4793 4.05467 12.2299C4.09526 11.9805 4.18937 11.7429 4.33053 11.5333C4.47169 11.3238 4.65656 11.1473 4.87241 11.016C5.08826 10.8847 5.32999 10.8016 5.58098 10.7726C5.83197 10.7436 6.08626 10.7693 6.32638 10.8479C6.5665 10.9265 6.78676 11.0562 6.972 11.228C8.35473 10.2902 9.98146 9.77718 11.652 9.752L12.54 5.588C12.55 5.53979 12.5694 5.49405 12.5972 5.45341C12.625 5.41277 12.6605 5.37805 12.7018 5.35127C12.7431 5.32448 12.7894 5.30615 12.8378 5.29735C12.8862 5.28855 12.9359 5.28945 12.984 5.3L15.924 5.888C16.0676 5.64132 16.2944 5.4539 16.5637 5.35937C16.833 5.26484 17.1272 5.2694 17.3934 5.37222C17.6597 5.47505 17.8806 5.6694 18.0164 5.92041C18.1523 6.17141 18.1943 6.46262 18.1348 6.74177C18.0753 7.02092 17.9182 7.26972 17.6918 7.44352C17.4654 7.61732 17.1845 7.70473 16.8995 7.69006C16.6144 7.6754 16.3439 7.55962 16.1366 7.3635C15.9292 7.16739 15.7985 6.90378 15.768 6.62L13.2 6.08L12.42 9.824C14.0702 9.8594 15.6749 10.3721 17.04 11.3C17.2222 11.1248 17.4402 10.9911 17.679 10.9082C17.9178 10.8252 18.1718 10.795 18.4234 10.8195C18.675 10.844 18.9183 10.9227 19.1366 11.0502C19.3549 11.1777 19.543 11.3509 19.688 11.558ZM8.206 13.033C8.11841 13.1641 8.05749 13.3111 8.02672 13.4657C7.99595 13.6203 7.99593 13.7794 8.02667 13.9341C8.08874 14.2463 8.27231 14.5211 8.537 14.698C8.80169 14.8749 9.1258 14.9394 9.43805 14.8773C9.59266 14.8466 9.7397 14.7857 9.87078 14.6981C10.0019 14.6106 10.1144 14.4981 10.202 14.367C10.3789 14.1023 10.4434 13.7782 10.3813 13.4659C10.3193 13.1537 10.1357 12.8789 9.871 12.702C9.60631 12.5251 9.2822 12.4606 8.96995 12.5227C8.6577 12.5847 8.3829 12.7683 8.206 13.033ZM12.012 17.924C13.077 17.968 14.125 17.69 14.976 17.048C15.0397 16.9859 15.076 16.9011 15.0772 16.8122C15.0783 16.7234 15.0441 16.6377 14.982 16.574C14.9513 16.5425 14.9146 16.5173 14.8742 16.5C14.8337 16.4826 14.7903 16.4734 14.7462 16.4728C14.6574 16.4717 14.5717 16.5059 14.508 16.568C13.7797 17.0904 12.895 17.3487 12 17.3C11.1061 17.3399 10.2255 17.0732 9.504 16.544C9.44182 16.493 9.36289 16.4669 9.28256 16.4708C9.20222 16.4748 9.12622 16.5085 9.06935 16.5653C9.01247 16.6222 8.97879 16.6982 8.97484 16.7786C8.97089 16.8589 8.99697 16.9378 9.048 17C9.89937 17.6416 10.9469 17.9681 12.012 17.924ZM14.093 14.746C14.291 14.878 14.511 14.996 14.748 14.996C14.9108 14.9979 15.0722 14.9666 15.2225 14.9041C15.3728 14.8416 15.5087 14.7492 15.6221 14.6324C15.7355 14.5156 15.824 14.377 15.8821 14.225C15.9401 14.0729 15.9667 13.9106 15.96 13.748C15.9599 13.5407 15.9062 13.337 15.8039 13.1567C15.7017 12.9763 15.5545 12.8256 15.3767 12.719C15.1989 12.6125 14.9965 12.5539 14.7893 12.5488C14.5821 12.5437 14.3771 12.5924 14.1943 12.6902C14.0115 12.7879 13.8571 12.9313 13.7462 13.1064C13.6353 13.2815 13.5717 13.4824 13.5615 13.6894C13.5513 13.8964 13.5949 14.1026 13.688 14.2877C13.7812 14.4729 13.9207 14.6308 14.093 14.746Z" fill="#F24139"/>
</g>
<defs>
<clipPath id="clip0_115_524">
<rect width="24" height="24" fill="white" transform="translate(0 0.5)"/>
</clipPath>
</defs>
</svg>
