<svg width="27" height="22" viewBox="0 0 27 22" fill="none" xmlns="http://www.w3.org/2000/svg">
<path d="M8.49393 22C18.6801 22 24.2531 13.5351 24.2531 6.19654C24.2531 5.95857 24.2478 5.71531 24.2372 5.47734C25.3214 4.69112 26.2569 3.71728 27 2.60158C25.9903 3.05206 24.9183 3.34626 23.8206 3.47414C24.9764 2.77939 25.8418 1.68796 26.2564 0.402189C25.1691 1.04839 23.98 1.50423 22.7401 1.75017C21.9047 0.859992 20.8001 0.270589 19.5971 0.0730863C18.3942 -0.124416 17.1598 0.0809828 16.085 0.657526C15.0101 1.23407 14.1545 2.14965 13.6506 3.2627C13.1466 4.37575 13.0224 5.62429 13.297 6.81527C11.0953 6.70448 8.94143 6.13093 6.97498 5.13183C5.00853 4.13272 3.2734 2.73035 1.88209 1.01563C1.17495 2.23825 0.958564 3.68501 1.27691 5.06187C1.59526 6.43873 2.42445 7.64238 3.59596 8.42819C2.71646 8.40019 1.85622 8.16273 1.08633 7.73543V7.80418C1.08554 9.08722 1.52786 10.331 2.3381 11.3239C3.14834 12.3169 4.27649 12.9979 5.53078 13.2511C4.71606 13.4746 3.86098 13.5072 3.0317 13.3463C3.38564 14.4497 4.07427 15.4148 5.00149 16.1069C5.92871 16.7989 7.04826 17.1834 8.20389 17.2067C6.24198 18.7522 3.81845 19.5904 1.32363 19.5864C0.881198 19.5858 0.439199 19.5586 0 19.505C2.53446 21.1356 5.48272 22.0016 8.49393 22Z" fill="#F24139"/>
</svg>
